<?xml version="1.0" encoding="utf-8"?>
<!-- Generator: Adobe Illustrator 27.5.0, SVG Export Plug-In . SVG Version: 6.00 Build 0)  -->
<svg version="1.1" id="Layer_1" xmlns="http://www.w3.org/2000/svg" xmlns:xlink="http://www.w3.org/1999/xlink" x="0px" y="0px"
	 viewBox="0 0 5000 5000" style="enable-background:new 0 0 5000 5000;" xml:space="preserve">
<g>
	<path d="M2656.778,662.363c-51.309-115.518-237.798-147.95-326.736,2.214c55.577-14.649,108.615-24.903,163.133-24.945
		C2547.947,639.588,2601.44,650.517,2656.778,662.363z"/>
	<path d="M2424.075,548.823c36.434-1.941,72.558-10.317,109.387-4.157c15.551,2.602,31.348,5.408,47.707,1.435
		c-0.265-3.218,0.25-6.127-0.794-8.281c-17.358-35.831-50.756-56.901-77.863-83.716c-6.889-6.815-15.443-2.683-21.614,3.152
		c-23.963,22.657-49.682,43.698-68.355,71.371c-3.265,4.839-9.635,9.903-5.589,16.577
		C2410.776,551.507,2418.142,549.14,2424.075,548.823z"/>
	<g>
		<path d="M2143.649,3567.042c192.611,128.493,402.751,139.692,613.877,52.768c266.014-109.521,384.607-389.092,248.943-659.218
			c-44.032-87.674-99.838-166.335-173.132-236.283c60.665-24.746,115.349-54.94,161.503-98.871
			c-36.718,17.64-74.542,32.217-111.685,48.291c-36.016,15.585-74.016,15.161-110.698,18.6
			c-124.018,11.625-233.588-21.589-317.669-118.976c-70.272-81.393-101.067-178.888-114.944-283.442
			c-9.858-74.279-8.775-149.854-26.355-223.17c-8.264-34.463-18.995-68.059-39.037-99.099c-5.501,6.917-2.47,11.9-1.69,16.817
			c8.995,56.694,11.362,113.724,7.512,170.932c-1.899,28.232-18.004,38.592-45.602,31.085
			c-41.003-11.154-55.01-62.507-25.946-94.909c12.356-13.774,28.767-20.184,45.812-27.361c-35.637-9.625-69.134-6.182-94.469,22.579
			c-23.941,27.179-21.805,58.763-8.537,90.552c17.745,42.512,51.29,61.515,95.391,58.733c25.018-1.578,29.633,6.293,28.373,29.258
			c-4.788,87.347,4.36,172.99,38.606,254.526c50.15,119.404,133.315,201.238,263.214,228.819
			c71.453,15.172,142.187,7.478,212.14-9.882c12.694-3.15,20.566-4.192,28.874,8.7c54.911,85.207,101.681,173.806,125.978,273.279
			c44.626,182.695-7.951,350.139-149.129,445.004c-173.337,116.476-358.242,126.791-542.867,31.309
			c-143.633-74.283-216.332-197.751-212.727-362.186c2.202-100.411,37.604-191.802,77.709-281.762
			c26.117-58.581,56.627-115.389,69.486-179.123c3.077-15.254,5.459-28.972,22.996-38.369c18.851-10.102,19.039-41.276,4.678-56.899
			c-13.39-14.568-38.953-15.119-53.041-1.144c-15.257,15.135-15.653,45.082,3.602,56.59c18.569,11.099,13.473,21.817,7.417,34.896
			c-19.21,41.496-44.011,79.682-70.576,116.726c-39.59,55.207-76.567,112.022-107.929,172.362
			C1877.379,3182.027,1934.118,3427.262,2143.649,3567.042z"/>
		<path d="M2099.262,3711.508c-2.904,0.425-4.382,0.29-4.576,0.726c-1.448,3.252-2.805,6.564-3.889,9.954
			c-30.939,96.704-101.404,148.543-196.83,168.927c-72.869,15.566-146.103,7.62-217.873-8.979
			c-123.765-28.624-230.87-85.054-303.936-193.519c-75.037-111.39-67.554-254.418,19.713-346.352
			c84.307-88.815,189.979-102.579,303.801-78.344c57.118,12.162,108.469,37.989,152.58,77.419
			c-31.506-58.814-102.806-121.196-168.709-150.365c-59.142-26.176-120.436-39.592-185.04-29.317
			c-198.141,31.513-317.522,218.281-288.179,415.563c21.908,147.292,108.108,249.761,234.586,320.507
			c103.689,57.999,217.165,79.85,334.97,78.722c89.194-0.854,174.37-18.218,244.313-78.943
			C2076.336,3848.765,2104.935,3787.55,2099.262,3711.508z"/>
		<path d="M2525.074,3945.134c40.155-47.393,91.654-79.014,147.366-104.509c52.849-24.184,109.471-38.02,163.441-59.163
			c87.15-34.14,160.972-84.598,207.295-168.817c25.705-46.732,37.759-96.887,38.021-150.173
			c-15.197,47.387-37.322,90.394-69.624,128.417c-71.547,84.219-166.222,126.68-270.562,152.232
			c-79.805,19.543-159.987,38.792-229.652,84.76c-18.826,12.422-31.442,11.651-49.044-0.041
			c-37.51-24.917-77.107-46.33-119.65-61.996c29.807,30.007,59.357,59.538,88.255,89.807c15.861,16.614,14.143,26.372,0.817,43.858
			c-60.734,79.698-83.381,168.029-44.555,263.871c40.953,101.094,124.036,148.037,227.418,164.126
			c43.667,6.797,87.696,9.71,138.186-1.778c-89.796-15.01-142.682-35.257-192.226-72.07
			C2453.249,4173.925,2438.601,4047.193,2525.074,3945.134z"/>
		<path d="M1554.898,1521.418c37.048-21.391,72.719-45.202,111.612-63.337c141.397-65.929,278.76,3.089,309.885,155.341
			c8.321,40.701,5.337,81.783,6.015,122.735c0.895,54.101,7.363,106.701,34.919,154.752c16.742,29.193,32.614,45.972,54.949,55.627
			c-20.933-37.284-33.751-75.496-38.722-116.707c-5.612-46.509,12.51-86.862,26.743-129.221
			c38.765-115.366-11.284-251.238-114.853-319.442c-104.08-68.541-257.401-60.218-349.886,20.154
			c-24.18,21.014-44.917,45.943-68.538,67.657c-43.096,39.615-90.512,72.098-154.935,84.177
			C1440.852,1571.242,1499.233,1553.558,1554.898,1521.418z"/>
		<path d="M2938.664,1716.465c19.027,47.865,28.77,95.251,16.955,145.989c-6.941,29.806-20.325,57.088-33.327,84.663
			c42.336-34.06,65.353-79.402,77.663-130.701c12.625-52.606,8.1-106.51,10.86-159.879c4.804-92.898,38.544-169.682,129.774-207.056
			c76.938-31.52,150.535-15.177,219.3,27.78c45.331,28.319,89.295,59.051,141.464,74.432c39.096,11.527,78.17,14.057,117.229,1.653
			c-26.228-2.22-48.896-12.226-71.231-23.731c-47.592-24.513-85.846-60.239-121.824-99.095
			c-81.112-87.602-182.283-112.596-295.273-85.853C2968.516,1382.948,2877.18,1561.796,2938.664,1716.465z"/>
		<path d="M3167.511,2588.344c9.564,41.271,7.713,82.584,0.587,124.181c17.927-29.272,30.403-60.483,38.179-93.499
			c28.813-122.317-38.611-225.157-158.574-241.178c-36.87-4.924-72.902,3.042-108.579,11.365
			c-49.454,11.536-96.921,30.763-147.502,38.046c-47.224,6.799-83.652-10.818-103.182-53.561
			c-24.09-52.72-24.497-108.132-15.687-165.437c61.344,38.854,111.62,36.663,149.072-5.096
			c28.369-31.632,32.77-87.998,9.087-116.396c-22.453-26.923-65.131-36.558-92.332-20.243c10.974,4.532,22.377,6.57,31.883,13.623
			c25.069,18.601,34.064,55.108,19.425,81.442c-13.448,24.192-43.081,33.692-69.668,22.334
			c-27.994-11.958-41.168-40.565-32.565-71.667c10.626-38.415,21.594-76.736,33.081-117.46c-4.244,3.187-6.865,4.298-8.173,6.276
			c-8.858,13.391-17.913,26.688-26.03,40.527c-50.423,85.955-84.62,177.082-83.254,278.284
			c1.143,84.678,42.151,132.976,124.706,149.019c38.896,7.559,78.294,6.421,117.291,0.74c55.668-8.109,111.111-17.607,167.755-13.41
			C3093.959,2462.228,3149.219,2509.397,3167.511,2588.344z"/>
		<path d="M2140.711,2044.054c26.26-38.487,26.468-38.308,72.103-23.717c3.699,1.183,7.832,3.594,12.484-2.276
			c-35.756-19.594-61.582-48.666-79.358-84.523c-17.128-34.549-32.872-69.785-49.224-104.719
			c0.109,15.616,1.839,30.663,5.765,45.112c11.444,42.122,2.895,80.095-17.87,117.902c-42.32,77.053-100.09,138.462-176.076,182.547
			c-22.232,12.898-45.473,23.785-74.606,29.921c14.402-124.35-6.416-240.154-65.106-348.555
			c-58.193-107.48-141.07-191.886-242.561-258.913c36.562,35.456,70.904,72.893,100.496,114.317
			c110.789,155.084,164.824,328.474,165.554,518.762c0.138,36.049-0.036,35.97,33.306,28.388
			C1958.646,2228.045,2063.761,2156.839,2140.711,2044.054z"/>
		<path d="M2897.165,1834.507c-33.975,69.811-70.391,136.58-134.223,184.93c9.396,4.752,14.632,0.052,20.338-1.88
			c39.903-13.51,39.856-13.495,62.85,21.077c77.407,116.389,186.727,186.353,320.775,220.214
			c31.176,7.875,31.366,7.678,31.181-22.73c-1.108-182.138,52.852-347.542,152.175-498.964
			c32.076-48.901,68.204-94.706,110.337-135.798c-56.738,39.024-108.256,83.786-152.355,136.333
			c-107.518,128.115-166.753,273.487-151.007,443.324c2.6,28.05-5.875,25.134-24.468,17.396
			c-113.854-47.378-190.636-132.06-243.004-241.188c-8.699-18.128-9.911-37.336-4.927-57.436
			C2890.158,1878.328,2893.153,1856.292,2897.165,1834.507z"/>
		<path d="M2242.228,884.225c0.882,0.137,1.766,0.273,2.635,0.469c9.848,2.222,13.602-0.691,15.021-11.758
			c8.269-64.459,46.188-107.068,104.026-131.898c68.344-29.341,139.849-35.866,212.254-18.484
			c83.585,20.066,148.962,60.61,160.347,155.681c0.874,7.299,3.869,8.915,10.322,7.752c16.634-2.995,33.256-6.109,49.973-8.568
			c10.481-1.542,9.938-8.391,8.764-15.785c-10.474-65.987-38.883-119.941-100.884-151.867
			c-65.102-33.521-135.235-43.109-202.866-45.191c-71.718,1.745-137.697,10.275-199.354,39.91
			c-49.7,23.887-86.371,59.442-101.45,114.21C2186.216,872.46,2188.258,875.818,2242.228,884.225z"/>
		<path d="M2426.078,1182.624c-28.417-41.354-38.13-86.464-32.793-135.31c5.064-46.357,35.529-86.475,75.351-97.958
			c62.613-18.054,126.166,28.72,133.962,98.99c5.272,47.521-6.055,91.477-34.69,136.751
			c77.235-28.561,111.438-99.345,91.821-178.905c-21.211-86.022-96.393-140.341-182.105-131.573
			c-81.292,8.316-147.016,86.44-146.575,174.229C2331.387,1116.319,2373.102,1175.801,2426.078,1182.624z"/>
		<path d="M2617.487,4373.127c-49.462,132.605-205.7,167.475-306.783,68.482c-73.319-71.803-88.237-185.432-37.3-287.626
			c10.892-21.855,23.294-42.957,35-64.406c-54.872,44.436-111.203,84.103-179.133,105.76c19.223,2.063,37.448,2.465,55.472,6.873
			c13.24,3.238,17.481,8.303,13.896,22.247c-9.464,36.814-8.186,74.125-3.501,111.665
			c17.169,137.556,129.027,226.565,266.792,211.695c95.641-10.324,169.827-95.244,159.802-187.738
			C2619.518,4366.917,2618.628,4370.069,2617.487,4373.127z"/>
		<path d="M2087.733,1257.997c36.248-35.973,81.269-57.32,129.286-73.891c-77.903-92.923-68.823-182.086,7.086-270.222
			c-30.719-5.788-55.503,2.507-76.755,20.727c-43.583,37.367-76.751,82.668-93.582,137.763
			c-18.564,60.771-19.417,121.404,13.254,178.799C2071.221,1258.552,2074.363,1271.265,2087.733,1257.997z"/>
		<path d="M2769.977,914.773c81.045,90.758,83.901,192.203,7.151,267.943c52.864,18.839,98.775,46.461,140.099,82.633
			c10.863-14.834,19.186-28.446,24.319-43.834c41.832-125.38-28.387-244.518-113.233-297.196
			C2811.632,913.961,2792.008,908.569,2769.977,914.773z"/>
		<path d="M2800.889,1227.518c-78.461-33.079-158.229-33.605-236.273,1.824c-28.386,12.886-51.299,33.467-59.328,68.877
			c190.377-81.175,378.586,18.004,421.654,167.041c7.659-11.725,12.059-22.056,19.513-29.202
			c23.314-22.347,17.482-44.859,4.72-69.822C2918.002,1301.355,2867.119,1255.441,2800.889,1227.518z"/>
		<path d="M2064.834,1462.613c57.528-162.294,249.733-245.52,423.867-161.192c-1.444-25.785-12.951-43.454-40.123-61.015
			c-37.044-23.94-78.442-32.722-121.779-35.996c-120.768-9.126-245.615,66.463-292.413,177.907
			c-4.41,10.503-10.234,20.791-1.536,32.648C2043.936,1430.077,2053.817,1446.072,2064.834,1462.613z"/>
		<path d="M2283.003,3948.818c21.058-84.485-7.566-172.634-73.707-212.977c57.207,80.805,37.804,197.326-16.176,254.043
			c-41.399,43.498-90.451,71.358-151.778,76.209c-59.533,4.708-113.378-8.048-163.015-51.953
			c29.298,77.793,98.664,115.19,194.611,110.049C2168.873,4119.047,2259.414,4043.459,2283.003,3948.818z"/>
		<path d="M2659.109,786.961c-79.551-63.612-243.359-62.727-322.062,1.851c-23.042,18.906-37.802,42.794-45.5,71.356
			c138.547-32.651,274.164-32.911,410.266-1.784C2695.642,827.273,2682.708,805.833,2659.109,786.961z"/>
		<path d="M2709.226,4177.368c-57.444-51.315-103.138-184.888-35.217-284.122c-22.018,14.73-34.174,28.705-44.603,44.346
			c-53.674,80.499-46.467,191.185,17.321,266.253c63.341,74.541,177.703,103.271,262.473,64.964
			c39.178-17.705,70.156-44.068,84.068-90.662C2901.456,4260.869,2771.241,4232.767,2709.226,4177.368z"/>
		<path d="M1849.956,2532.643c-51.963-41.365-134.006-10.646-147.283,55.632c-5.637,28.14-8.258,56.552-2.118,85.122
			c3.253,15.137,1.836,23.183-18.615,24.15c-99.746,4.715-158.433,79.14-144.361,180.362c5.627-2.016,4.281-7.295,4.902-11.24
			c13.402-85.115,64.821-134.424,146.538-154.068c18.041-4.337,21.823-15.943,22.8-30.869c1.702-25.998,5.667-51.502,16.676-75.334
			c16.448-35.604,44.659-53.018,78.95-49.324c-4.897,12.32-10.425,24.411-14.558,36.962c-12.467,37.864-0.934,74.336,8.374,110.476
			c22.165,86.057,0.736,158.748-64.916,218.25c-11.765,10.662-25.322,19.345-40.468,30.764c5.641,0.684,7.601,1.545,9.037,1.006
			c106.603-39.993,180.815-146.25,140.229-269.221c-15.209-46.08-14.83-89.499,10.42-131.179
			C1862.295,2543.023,1857.6,2538.728,1849.956,2532.643z"/>
		<path d="M2692.916,1173.578c73.506-5.171,108.821-43.516,108.819-117.534c-0.004-92.995-96.73-182.647-201.031-181.241
			c48.947,39.192,81.417,82.62,90.381,141.748c8.83,58.249-5.022,109.894-42.02,157.159
			C2666.26,1173.711,2679.65,1174.511,2692.916,1173.578z"/>
		<path d="M2209.896,986.373c-24.92,49.614-24.091,100.419,7.314,147.436c30.615,45.834,79.749,37.158,126.896,41.226
			c-71.501-106.956-50.224-220.808,50.879-302.258C2310.642,882.072,2246.537,913.422,2209.896,986.373z"/>
		<path d="M2483.442,1204.209c7.814,6.272,14.59,11.452,25.737,3.369c48.608-35.248,77.463-114.648,61.504-172.321
			c-9.77-35.307-39.806-62.072-71.203-63.451c-30.613-1.344-62.04,24.212-73.639,60c-4.159,12.831-6.321,25.979-5.571,39.607
			C2421.596,1125.018,2440.964,1170.113,2483.442,1204.209z"/>
		<path d="M1519.78,2539.823c0.25,18.76,11.407,30.393,29.615,31.768c17.495,1.321,31.447-6.896,36.495-24.852
			c2.36-8.394,2.739-17.54,2.797-26.354c0.478-72.122,0.695-144.246,0.931-216.369c0.089-27.145-11.418-42.812-31.953-43.8
			c-23.1-1.111-37.666,15.66-37.883,44.548c-0.281,37.395-0.068,74.794-0.068,112.191c-0.034,0.001-0.069,0.001-0.103,0.001
			C1519.61,2457.913,1519.234,2498.874,1519.78,2539.823z"/>
		<path d="M1477.627,3051.187c83.672,35.981,197.311,13.295,225.557-40.843c-85.275,43.884-165.902,26.834-240.005-26.302
			c-74.846-53.67-103.33-133.195-110.252-222.627C1310.301,2874.244,1367.779,3003.949,1477.627,3051.187z"/>
		<path d="M1472.254,2290.614c-19.945-2.555-35.033,6.062-40.105,26.837c-2.086,8.545-2.871,17.594-2.915,26.421
			c-0.305,61.558-0.347,123.118-0.287,184.677c0.026,27.334,13.189,41.532,37.532,41.137c23.067-0.374,33.223-12.948,33.319-41.685
			c0.11-33.005,0.025-66.01,0.025-99.014c-0.239,0-0.479,0-0.718,0c0-34.794-0.132-69.589,0.052-104.382
			C1499.256,2305.871,1490.816,2292.991,1472.254,2290.614z"/>
		<path d="M1605.998,2534.034c0.64,21.644,12.354,35.444,34.883,35.93c23.038,0.497,34.51-13.279,34.727-35.209
			c0.6-60.61,0.458-121.229,0.283-181.844c-0.067-23.375-11.943-37.451-35.688-37.738c-23.899-0.29-32.464,16.188-33.075,37.008
			c-0.862,29.395-0.218,58.833-0.218,88.253c-0.382,0-0.764,0-1.147,0C1605.763,2471.636,1605.076,2502.858,1605.998,2534.034z"/>
		<path d="M2631.592,1594.712c-42.619,52.734-44.561,139.201-2.608,192.412c-2.879-68.595,13.631-128.329,64.432-174.881
			c51.038-46.768,115.49-55.154,187.625-61.154C2795.106,1509.322,2682.947,1531.169,2631.592,1594.712z"/>
		<path d="M2361.916,1594.376c-53.679-65.099-166.013-87.312-241.451-45.926c200.444,42.423,232.85,73.561,243.329,233.803
			C2401.269,1743.435,2405.563,1647.308,2361.916,1594.376z"/>
		<path d="M1381.922,2628.236c24.806,0.412,30.348-18.159,30.723-38.448c0.528-28.555,0.134-57.125,0.134-85.69
			c-0.035,0-0.071,0-0.106,0c0-29.458,0.012-58.913-0.005-88.371c-0.008-14.056-6.051-24.91-19.901-28.081
			c-14.917-3.416-25.86,4.606-32.909,17.365c-4.815,8.714-6.066,18.417-6.069,28.47c-0.016,51.771-0.132,103.544-0.709,155.311
			C1352.846,2609.646,1356.959,2627.82,1381.922,2628.236z"/>
		<path d="M2826.615,1680.316c3.625-23.463,12.043-41.878,29.857-57.465c-29.154,14.791-29.158,14.539-68.298,15.235
			c-13.31,0.237-26.768,1.082-39.855,3.379c-49.612,8.706-88.415,54.151-84.628,98.745c25.416-18.991,53.173-21.749,83.536-15.364
			C2785.153,1732.819,2821.49,1713.478,2826.615,1680.316z"/>
		<path d="M2228.77,1640.051c-28.878-1.095-58.455,4.868-86.352-20.305c4.821,20.169,23.099,20.906,23.315,37.785
			c0.611,47.666,30.068,74.542,77.592,68.151c32.296-4.345,62.553-6.852,90.948,18.361
			C2325.746,1676.579,2290.45,1642.39,2228.77,1640.051z"/>
		<path d="M2549.932,3372.668c0.465-31.406-23.131-56.443-54.25-57.564c-32.378-1.166-58.617,23.886-58.799,56.139
			c-0.175,31.052,24.157,56.526,54.847,57.422C2524.685,3429.628,2549.441,3405.81,2549.932,3372.668z"/>
		<path d="M2438.669,1540.351c32.319,28.595,83.019,28.261,115.204-0.759c33.805-30.48,36.434-83.73,6.057-122.736
			c0.581,68.378-24.101,104.088-69.146,100.037c-44.102-3.966-65.48-41.805-55.604-103.119
			C2402.052,1457.559,2404.63,1510.234,2438.669,1540.351z"/>
		<path d="M2473.823,1382.071c-1.35,14.037-10.025,27.012-6.563,38.713c0.704,10.25,0.348,17.557,1.858,24.455
			c3.103,14.178,7.082,28.98,25.126,30.081c17.71,1.081,24.068-12.019,29.121-26.21c8.637-24.258,1.179-47.708-4.444-70.752
			c-2.671-10.946-14.42-16.249-25.788-15.126C2482.847,1364.245,2474.952,1370.322,2473.823,1382.071z"/>
		<g>
			<path d="M3587.869,3105.134c-12.2,11.661-19.319,36.956-27.862,52.024c-10.301,18.167-21.576,35.802-34.194,52.453
				c-25.921,34.206-57.515,63.723-93.976,86.443c15.159-32.944,17.469-61.208,7.514-90.113
				c-7.915,17.479-12.55,36.033-26.913,48.991c-12.318,11.114-25.606,27.041-43.513,12.317
				c-16.977-13.959-12.516-30.423,0.126-47.074c15.981-21.047,30.268-43.532,33.441-71.712c-9.544,0.586-12.552,6.727-16.798,10.962
				c-16.466,16.428-32.678,33.41-54.921,41.886c-8.926,3.401-20.366,6.457-27.984-1.106c-7.449-7.395-0.894-17.034,2.338-24.904
				c8.339-20.303,17.572-40.239,26.448-60.322c-32.624,20.258-65.733,39.038-80.143,75.929
				c-15.333,39.257,5.846,71.741,47.608,71.069c15.97-0.256,22.274,4.789,25.91,18.659c1.765,6.735,4.522,14.095,9.122,19.027
				c16.419,17.604,25.308,25.554,50.715,23.728c31.545-2.268,63.016-6.297,94.186-11.615c9.318-1.59,18.811-3.378,27.048-8.015
				c14.032-7.901,22.458-22.909,28.574-37.806c8.327-20.284,18.679-39.442,26.739-59.735c12.648-31.841,23.332-60.185,28.784-94.146
				c0.463-2.882,0.174-5.324-2.01-7.171C3588.029,3104.981,3587.949,3105.057,3587.869,3105.134z"/>
			<path d="M3313.858,3025.313c-17.179,17.983-29.974,39.563-54.574,46.393c-14.847,4.122-29.007,4.878-34.693-13.671
				c-15.194-49.572,23.938-105.007,75.512-106.894c19.594-0.718,39.317,0.77,58.822-0.762c45.188-3.55,82.21-20.767,100.299-67.156
				c-38.446,27.756-81.059,28.942-123.329,18.225c-94.643-23.997-168.426,55.333-169.388,156.187
				c-0.435,45.645,38.765,74.516,81.777,63.629C3286.177,3111.671,3316.911,3067.774,3313.858,3025.313z"/>
			<path d="M3633.277,2834.185c-76.968-67.416-189.94-71.696-258.089-6.568c188.241-40.544,308.801,78.336,292.584,284.146
				C3722.377,3025.071,3713.257,2904.239,3633.277,2834.185z"/>
		</g>
		<path d="M3535.101,3342.127c-32.205-8.615-65.932-12.227-100.299-9.893c-54.596,3.708-105.549,21.353-151.912,49.713
			c-53.577,32.772-97.251,75.78-134.966,127.566c4.181,1.031,5.126,1.567,5.477,1.304c4.285-3.191,8.536-6.433,12.697-9.785
			c86.195-69.466,183.539-91.99,291.422-68.353c177.778,38.952,268.336,214.126,194.793,377.423
			c-34.645,76.927-95.828,128.974-169.375,164.918c-146.277,71.49-301.198,105.544-464.294,89.213
			c-106.724-10.686-186.954-61.376-224.062-167.441c-3.963-11.328-7.7-22.736-13.383-39.556
			c-7.232,67.449,7.581,122.779,44.948,171.947c52.787,69.456,127.966,97.512,209.949,110.583
			c122.781,19.576,243.93,4.914,363.659-23.697c111.06-26.539,214.345-69.676,292.792-156.588
			c88.605-98.166,127.715-234.831,92.906-363.758C3752.735,3474.534,3654.357,3374.029,3535.101,3342.127z"/>
	</g>
</g>
</svg>
